# xmcd
#
# Track frame offsets: 
#        150
#        23995
#        49960
#        77230
#        97637
#        124777
#        146162
#        168857
#        192705
#        220600
#        242230
#        265425
#
# Disc length: 3813 seconds
#
# Revision: 0
# Processed by: cddbd v1.5.2PL0 Copyright (c) Steve Scherf et al.
# Submitted via: ExactAudioCopy v1.3
#
DISCID=ac0ee30c
DTITLE=上田 正樹 - Complete Best Selection
DYEAR=2006
DGENRE=Rock
TTITLE0=Forever Peace  [Duet With Reza]
TTITLE1=悲しい色やね
TTITLE2=ずっと 遠くで
TTITLE3=Collage
TTITLE4=Takako
TTITLE5=You Belong To Me  [Japanese Version]
TTITLE6=Let’s Take A Walk
TTITLE7=ゆたかな暮らし
TTITLE8=わがまま
TTITLE9=My One And Only 'O'
TTITLE10=Curtain Call
TTITLE11=Try A Little Tenderness  [With South To South]
EXTD=
EXTT0=
EXTT1=
EXTT2=
EXTT3=
EXTT4=
EXTT5=
EXTT6=
EXTT7=
EXTT8=
EXTT9=
EXTT10=
EXTT11=
PLAYORDER=
